<svg xmlns:xlink="http://www.w3.org/1999/xlink" xmlns="http://www.w3.org/2000/svg" viewBox="0 0 216 42" class="h-10 astro-JL33F4A7" astro-icon="logomark" width="216"  height="42" >
    <g fill="none" fill-rule="evenodd">
        <path stroke="#D43F37" d="m8.747 14.578.014 26.206h-6.5L.5 39.026V16.34l1.762-1.762h6.485Z" fill="none"></path>
        <path fill="#D8D8D8" d="M9.247 37.175h2.055v2.053H9.247zM9.247 39.23h2.055v2.052H9.247z" opacity=".5"></path>
        <path fill="#D43F37" d="M2.055 14.077h9.247v27.206H2.055z"></path>
        <path stroke="#D43F37" d="m36.032 14.578.026 26.205h-6.469l-1.777-1.761V16.34l1.762-1.762h6.458Z" fill="none"></path>
        <path fill="#D43F37" d="M29.367 14.077h9.246v27.206h-9.246z"></path>
        <path stroke="#D43F37" d="m8.77 1.145 1.982 8.582-1.712 1.711H.5V2.906l1.762-1.76H8.77Z" fill="none"></path>
        <path fill="#D43F37" d="M2.055.645h9.247v9.24H2.055z"></path>
        <path stroke="#D43F37" d="m36.072 1.145 1.908 8.58-1.714 1.713h-22.41V2.906l1.763-1.76h20.453Z" fill="none"></path>
        <path fill="#D43F37" d="M15.412.645h23.116v9.24H15.412z"></path>
        <g fill="#D43F37" fill-rule="nonzero">
            <path d="M59.933 8.476V35h-5.32V8.476zM76.843 13.644c2.508 0 4.535.792 6.08 2.375 1.546 1.583 2.318 3.794 2.318 6.631V35h-5.32V23.372c0-1.672-.418-2.958-1.254-3.857-.836-.9-1.976-1.349-3.42-1.349-1.469 0-2.628.45-3.477 1.349-.848.9-1.273 2.185-1.273 3.857V35h-5.32V13.948h5.32v2.622c.71-.912 1.615-1.628 2.717-2.147 1.102-.52 2.312-.779 3.63-.779ZM88.927 24.474c0-2.179.444-4.085 1.33-5.719.887-1.634 2.116-2.9 3.686-3.8 1.571-.9 3.37-1.349 5.396-1.349 2.61 0 4.77.652 6.48 1.957 1.71 1.305 2.856 3.135 3.438 5.491h-5.738c-.304-.912-.817-1.628-1.539-2.147-.722-.52-1.615-.779-2.679-.779-1.52 0-2.723.551-3.61 1.653-.886 1.102-1.33 2.666-1.33 4.693 0 2.001.444 3.553 1.33 4.655.887 1.102 2.09 1.653 3.61 1.653 2.154 0 3.56-.963 4.218-2.888h5.738c-.582 2.28-1.735 4.091-3.458 5.434-1.722 1.343-3.876 2.014-6.46 2.014-2.026 0-3.825-.45-5.396-1.349-1.57-.9-2.799-2.166-3.686-3.8-.886-1.634-1.33-3.54-1.33-5.719ZM118.491 17.216a7.48 7.48 0 0 1 2.68-2.622c1.101-.633 2.362-.95 3.78-.95v5.586h-1.406c-1.672 0-2.932.393-3.78 1.178-.85.785-1.274 2.153-1.274 4.104V35h-5.32V13.948h5.32v3.268ZM148.093 24.018c0 .76-.05 1.444-.152 2.052h-15.39c.127 1.52.66 2.71 1.596 3.572.938.861 2.09 1.292 3.458 1.292 1.976 0 3.382-.849 4.218-2.546h5.738c-.608 2.027-1.773 3.692-3.496 4.997-1.722 1.305-3.838 1.957-6.346 1.957-2.026 0-3.844-.45-5.453-1.349-1.608-.9-2.862-2.172-3.762-3.819-.899-1.647-1.349-3.547-1.349-5.7 0-2.179.444-4.091 1.33-5.738.887-1.647 2.128-2.913 3.724-3.8s3.433-1.33 5.51-1.33c2.002 0 3.794.43 5.377 1.292a9.093 9.093 0 0 1 3.686 3.667c.874 1.583 1.311 3.401 1.311 5.453Zm-5.51-1.52c-.025-1.368-.519-2.464-1.482-3.287-.962-.823-2.14-1.235-3.534-1.235-1.317 0-2.425.399-3.325 1.197-.899.798-1.45 1.906-1.653 3.325h9.994ZM160.025 35.342c-1.722 0-3.268-.31-4.636-.931-1.368-.62-2.45-1.463-3.249-2.527-.798-1.064-1.235-2.242-1.31-3.534h5.357c.102.81.5 1.482 1.197 2.014.697.532 1.565.798 2.603.798 1.014 0 1.805-.203 2.375-.608.57-.405.855-.925.855-1.558 0-.684-.348-1.197-1.045-1.539-.696-.342-1.805-.716-3.325-1.121-1.57-.38-2.856-.773-3.857-1.178a6.696 6.696 0 0 1-2.584-1.862c-.722-.836-1.083-1.963-1.083-3.382 0-1.165.336-2.23 1.007-3.192.672-.963 1.634-1.723 2.888-2.28 1.254-.557 2.73-.836 4.427-.836 2.508 0 4.51.627 6.004 1.881 1.495 1.254 2.318 2.945 2.47 5.073h-5.092c-.076-.836-.424-1.501-1.045-1.995-.62-.494-1.45-.741-2.489-.741-.962 0-1.703.177-2.223.532-.519.355-.779.849-.779 1.482 0 .71.355 1.248 1.064 1.615.71.367 1.812.741 3.306 1.121 1.52.38 2.774.773 3.762 1.178a6.647 6.647 0 0 1 2.565 1.881c.722.849 1.096 1.97 1.121 3.363 0 1.216-.335 2.305-1.007 3.268-.67.963-1.634 1.716-2.888 2.261-1.254.545-2.717.817-4.389.817ZM171.311 24.474c0-2.179.444-4.085 1.33-5.719.887-1.634 2.116-2.9 3.686-3.8 1.571-.9 3.37-1.349 5.396-1.349 2.61 0 4.77.652 6.48 1.957 1.71 1.305 2.856 3.135 3.438 5.491h-5.738c-.304-.912-.817-1.628-1.539-2.147-.722-.52-1.615-.779-2.679-.779-1.52 0-2.723.551-3.61 1.653-.886 1.102-1.33 2.666-1.33 4.693 0 2.001.444 3.553 1.33 4.655.887 1.102 2.09 1.653 3.61 1.653 2.154 0 3.56-.963 4.218-2.888h5.738c-.582 2.28-1.735 4.091-3.458 5.434-1.722 1.343-3.876 2.014-6.46 2.014-2.026 0-3.825-.45-5.396-1.349-1.57-.9-2.799-2.166-3.686-3.8-.886-1.634-1.33-3.54-1.33-5.719ZM204.903 35.342c-2.026 0-3.85-.45-5.472-1.349-1.62-.9-2.894-2.172-3.819-3.819-.924-1.647-1.387-3.547-1.387-5.7s.475-4.053 1.425-5.7a9.902 9.902 0 0 1 3.895-3.819c1.647-.9 3.484-1.349 5.51-1.349 2.027 0 3.864.45 5.51 1.349a9.902 9.902 0 0 1 3.895 3.819c.95 1.647 1.425 3.547 1.425 5.7s-.487 4.053-1.463 5.7a10.131 10.131 0 0 1-3.952 3.819c-1.659.9-3.515 1.349-5.567 1.349Zm0-4.636c.963 0 1.869-.234 2.717-.703.85-.469 1.527-1.172 2.033-2.109.507-.937.76-2.077.76-3.42 0-2.001-.525-3.54-1.577-4.617-1.05-1.077-2.337-1.615-3.857-1.615s-2.793.538-3.819 1.615c-1.026 1.077-1.539 2.616-1.539 4.617s.5 3.54 1.501 4.617 2.261 1.615 3.781 1.615Z" fill="#D43F37"></path>
        </g>
    </g>
</svg>